HIERARCHY
ROOT Hips
{
	OFFSET 0.00000 0.00000 0.00000
	CHANNELS 6 Xposition Yposition Zposition Zrotation Yrotation Xrotation 
	JOINT LHipJoint
	{
		OFFSET 0 0 0
		CHANNELS 3 Zrotation Yrotation Xrotation
		JOINT LeftUpLeg
		{
			OFFSET 1.62964 -1.40469 0.78906
			CHANNELS 3 Zrotation Yrotation Xrotation
			JOINT LeftLeg
			{
				OFFSET 2.29640 -6.30932 0.00000
				CHANNELS 3 Zrotation Yrotation Xrotation
				JOINT LeftFoot
				{
					OFFSET 2.29451 -6.30412 0.00000
					CHANNELS 3 Zrotation Yrotation Xrotation
					JOINT LeftToeBase
					{
						OFFSET 0.03611 -0.09921 1.56387
						CHANNELS 3 Zrotation Yrotation Xrotation
						End Site
						{
							OFFSET 0.00000 -0.00000 0.80291
						}
					}
				}
			}
		}
	}
	JOINT RHipJoint
	{
		OFFSET 0 0 0
		CHANNELS 3 Zrotation Yrotation Xrotation
		JOINT RightUpLeg
		{
			OFFSET -1.73712 -1.40469 0.78906
			CHANNELS 3 Zrotation Yrotation Xrotation
			JOINT RightLeg
			{
				OFFSET -2.28137 -6.26801 0.00000
				CHANNELS 3 Zrotation Yrotation Xrotation
				JOINT RightFoot
				{
					OFFSET -2.28681 -6.28298 0.00000
					CHANNELS 3 Zrotation Yrotation Xrotation
					JOINT RightToeBase
					{
						OFFSET -0.15927 -0.43759 1.61103
						CHANNELS 3 Zrotation Yrotation Xrotation
						End Site
						{
							OFFSET -0.00000 -0.00000 0.84630
						}
					}
				}
			}
		}
	}
	JOINT LowerBack
	{
		OFFSET 0 0 0
		CHANNELS 3 Zrotation Yrotation Xrotation
		JOINT Spine
		{
			OFFSET -0.04227 2.04338 -0.00225
			CHANNELS 3 Zrotation Yrotation Xrotation
			JOINT Spine1
			{
				OFFSET -0.02148 2.04482 -0.04273
				CHANNELS 3 Zrotation Yrotation Xrotation
				JOINT Neck
				{
					OFFSET 0 0 0
					CHANNELS 3 Zrotation Yrotation Xrotation
					JOINT Neck1
					{
						OFFSET 0.09180 1.44629 0.19359
						CHANNELS 3 Zrotation Yrotation Xrotation
						JOINT Head
						{
							OFFSET 0.00887 1.40645 0.14750
							CHANNELS 3 Zrotation Yrotation Xrotation
							End Site
							{
								OFFSET -0.00669 1.50671 0.03707
							}
						}
					}
				}
				JOINT LeftShoulder
				{
					OFFSET 0 0 0
					CHANNELS 3 Zrotation Yrotation Xrotation
					JOINT LeftArm
					{
						OFFSET 2.17674 1.86763 -0.06520
						CHANNELS 3 Zrotation Yrotation Xrotation
						JOINT LeftForeArm
						{
							OFFSET 4.65776 -0.00000 0.00000
							CHANNELS 3 Zrotation Yrotation Xrotation
							JOINT LeftHand
							{
								OFFSET 3.55539 -0.00000 0.00000
								CHANNELS 3 Zrotation Yrotation Xrotation
								JOINT LeftFingerBase
								{
									OFFSET 0 0 0
									CHANNELS 3 Zrotation Yrotation Xrotation
									JOINT LeftHandIndex1
									{
										OFFSET 0.70726 -0.00000 0.00000
										CHANNELS 3 Zrotation Yrotation Xrotation
										End Site
										{
											OFFSET 0.57022 -0.00000 0.00000
										}
									}
								}
								JOINT LThumb
								{
									OFFSET 0 0 0
									CHANNELS 3 Zrotation Yrotation Xrotation
									End Site
									{
										OFFSET 0.57892 -0.00000 0.57892
									}
								}
							}
						}
					}
				}
				JOINT RightShoulder
				{
					OFFSET 0 0 0
					CHANNELS 3 Zrotation Yrotation Xrotation
					JOINT RightArm
					{
						OFFSET -2.80694 1.55459 -0.32496
						CHANNELS 3 Zrotation Yrotation Xrotation
						JOINT RightForeArm
						{
							OFFSET -4.71925 -0.00000 -0.00000
							CHANNELS 3 Zrotation Yrotation Xrotation
							JOINT RightHand
							{
								OFFSET -3.56990 -0.00000 0.00000
								CHANNELS 3 Zrotation Yrotation Xrotation
								JOINT RightFingerBase
								{
									OFFSET 0 0 0
									CHANNELS 3 Zrotation Yrotation Xrotation
									JOINT RightHandIndex1
									{
										OFFSET -0.50776 -0.00000 0.00000
										CHANNELS 3 Zrotation Yrotation Xrotation
										End Site
										{
											OFFSET -0.40937 -0.00000 0.00000
										}
									}
								}
								JOINT RThumb
								{
									OFFSET 0 0 0
									CHANNELS 3 Zrotation Yrotation Xrotation
									End Site
									{
										OFFSET -0.41562 -0.00000 0.41562
									}
								}
							}
						}
					}
				}
			}
		}
	}
}
MOTION
Frames: 10
Frame Time: 0.0512821
0.00 0.00 0.00 0 0 0 0 0 0 -21 0 0 0 0 0 0 0 0 0 0 0 0 0 0 21 0 0 0 0 0 0 0 0 0 0 0 0 0 0 0 0 0 0 0 0 0 0 -16 0 0 21 0 0 11 0 0 0 -8 0 0 0 0 0 0 0 0 0 0 0 0 0 0 0 0 0 0 0 0 8 0 0 0 0 0 0 0 0 0 0 0 0 0 0 0 0 0
0.00 0.00 0.00 177.4730 0.2796 -152.8250 0.0000 0.0000 0.0000 -14.0483 -21.8849 -27.6397 1.9319 8.7228 24.9319 0.6323 2.0735 -15.9124 6.3978 -14.8031 -46.5581 0.0000 0.0000 0.0000 19.3838 14.6378 -21.1027 -0.2223 -3.0348 8.3756 -1.4199 -0.9473 -22.8860 -3.0477 10.7719 -31.5143 -6.1392 -1.7285 -29.1947 -0.5408 -0.7635 -0.9566 2.3928 -0.9880 14.4094 -1.1129 -2.6319 -7.1349 3.1917 -3.4919 14.8010 0.9567 -1.3568 5.7185 0.0000 -0.0000 0.0000 -85.8392 1.0100 15.0967 13.4546 -21.9497 -2.6208 -0.0000 -0.0000 5.8597 21.8582 -9.9463 -3.9636 -7.1250 0.0000 -0.0000 -3.6532 19.2918 2.2457 0.0000 -0.0000 0.0000 92.7933 -7.2328 7.6711 -19.8985 30.5198 -5.4797 0.0000 0.0000 0.9619 -15.3522 -55.0541 12.6828 7.1250 -0.0000 -0.0000 74.4892 -77.4574 -61.7724
0.00 0.00 0.00 177.0380 -0.6359 -152.4710 0.0000 0.0000 0.0000 -12.3766 -24.8619 -38.0113 5.1620 13.5640 41.5180 0.2579 2.5327 -10.8681 3.7674 -11.8442 -35.1832 0.0000 0.0000 0.0000 19.5683 12.0621 -22.2797 -0.2162 -2.9930 8.2594 -1.5130 1.1978 -22.9100 -2.6395 10.0872 -29.2596 -5.6432 -1.4592 -28.0514 -0.7356 -0.5454 -0.7819 2.0236 -0.8174 14.0644 -1.6100 -1.8628 -6.6674 3.4521 -3.3388 14.5672 1.1006 -1.6677 5.5718 0.0000 -0.0000 0.0000 -86.4645 1.4418 15.4975 14.8847 -23.9853 -3.1789 -0.0000 -0.0000 5.9725 21.6455 -10.1726 -4.0092 -7.1250 0.0000 -0.0000 -3.8102 19.0666 2.3617 0.0000 -0.0000 0.0000 92.2124 -6.5209 8.0850 -19.5599 30.1085 -5.3088 0.0000 0.0000 1.5353 -13.1046 -54.9565 10.7906 7.1250 -0.0000 -0.0000 74.3367 -76.5904 -60.6770
0.00 0.00 0.00 175.6820 4.5768 -151.8380 0.0000 0.0000 0.0000 -18.2324 -20.0141 -35.7265 0.5473 4.7396 13.1674 0.0094 2.4795 -4.1140 3.2156 -11.0362 -32.4020 0.0000 0.0000 0.0000 16.2100 15.1825 -17.0133 -2.0096 -8.8861 25.4398 -1.9924 0.8381 -26.4739 -3.8393 11.9434 -35.5319 -8.3826 0.3726 -26.4765 -3.4318 4.1544 -0.3265 2.4584 1.6701 14.2391 -1.1171 -1.4892 -6.2977 3.1069 -2.9051 15.2347 0.9418 -1.4665 5.6934 0.0000 -0.0000 0.0000 -85.4243 4.8163 6.7795 10.5095 -17.5325 -1.6251 -0.0000 -0.0000 9.7674 20.8539 -9.6711 -3.6617 -7.1250 0.0000 -0.0000 -4.3628 19.6603 2.6483 0.0000 -0.0000 0.0000 91.7035 -3.1433 18.2439 -22.7032 33.7627 -6.9726 0.0000 -0.0000 -2.1177 -13.9497 -54.3185 11.4071 7.1250 -0.0000 -0.0000 71.4772 -76.8015 -58.1979
0.00 0.00 0.00 176.1450 3.8049 -152.0790 0.0000 0.0000 0.0000 -19.8170 -18.3858 -32.9125 0.5413 4.7137 13.0937 0.0777 -0.1477 -5.2118 3.6522 -11.6826 -34.6182 0.0000 0.0000 0.0000 15.4386 12.7468 -25.4734 -5.1994 -13.6049 41.6773 -0.9092 1.8020 -17.5022 -3.7110 11.7656 -34.9079 -8.4142 -0.4985 -25.9851 -2.8888 2.8505 -0.4793 2.6076 1.0717 13.8634 -0.8029 -1.3986 -6.2805 3.3596 -2.8778 15.1974 0.9705 -1.4272 5.6781 -0.0000 0.0000 0.0000 -85.8088 5.3062 10.8550 12.5279 -20.5916 -2.2846 -0.0000 -0.0000 7.1707 20.7220 -10.6021 -3.9816 -7.1250 0.0000 -0.0000 -4.4747 18.6822 2.8142 -0.0000 0.0000 0.0000 90.9689 -4.1312 17.3330 -23.2160 34.3241 -7.2597 0.0000 -0.0000 -1.6867 -13.9494 -52.9080 11.2070 7.1250 -0.0000 -0.0000 65.6337 -76.4535 -52.4055
0.00 0.00 0.00 176.3350 3.2845 -153.0990 0.0000 0.0000 0.0000 -22.0548 -15.8377 -28.2991 0.4063 4.0922 11.3363 0.1260 -2.9450 -6.3317 3.0379 -10.7561 -31.4616 0.0000 0.0000 0.0000 14.1976 12.1580 -36.3599 -10.2763 -17.5623 60.4077 -0.3574 -3.1859 -12.9195 -4.3836 12.6541 -38.0871 -8.3378 -1.0997 -25.0011 -2.4977 1.8199 -0.3428 2.6183 0.5816 13.5608 -0.9061 -2.0065 -5.0002 3.8788 -3.8575 15.0073 1.0975 -1.9263 5.4329 0.0000 0.0000 0.0000 -84.7498 3.9561 15.7417 14.3203 -23.1907 -2.9531 -0.0000 -0.0000 6.0303 20.8544 -9.7345 -3.6855 -7.1250 0.0000 -0.0000 -4.3635 19.5930 2.6553 0.0000 0.0000 0.0000 90.8839 -5.4235 13.8717 -23.7862 34.9373 -7.5838 0.0000 -0.0000 -3.5911 -14.2207 -52.7211 11.4007 7.1250 -0.0000 -0.0000 64.7673 -76.5024 -51.6686
0.00 0.00 0.00 180.3150 -2.2712 -157.0760 0.0000 0.0000 0.0000 -17.7643 -13.4284 -24.9059 8.4343 16.4296 54.1122 0.0882 2.1767 5.2769 2.5623 -9.9503 -28.8160 0.0000 0.0000 0.0000 18.5796 15.6246 -31.4702 -0.3963 -4.0419 11.1945 -0.2700 -1.5914 -10.5285 -4.1089 12.3040 -36.8159 -3.4060 -3.1908 -24.3191 1.1633 -3.6013 0.7358 1.9564 -2.0204 14.8619 -2.0869 -2.6979 -4.2890 3.5934 -3.1935 17.9898 1.3146 -1.0642 6.2446 -0.0000 0.0000 0.0000 -84.5392 3.0892 14.9048 14.4976 -23.4416 -3.0233 -0.0000 -0.0000 5.6448 20.7750 -9.1175 -3.4402 -7.1250 0.0000 -0.0000 -4.4108 20.2539 2.6188 -0.0000 0.0000 0.0000 92.2581 -9.3167 -6.1851 -13.3346 21.7755 -2.5761 0.0000 0.0000 6.9564 -15.4515 -53.5413 12.5339 7.1250 -0.0000 -0.0000 67.7541 -77.2124 -55.1639
0.00 0.00 0.00 178.5210 0.1083 -159.0410 0.0000 0.0000 0.0000 -17.2535 -14.8619 -41.1506 14.2805 19.1969 73.0594 0.1613 1.7303 -8.4283 2.6768 -10.1524 -29.4718 0.0000 0.0000 0.0000 18.2635 15.2826 -28.5895 -0.5543 -4.7690 13.2510 -0.4725 -2.2636 -14.0066 -3.9505 12.0943 -36.0664 -3.2771 -2.4318 -22.2119 0.8844 -2.5340 2.1247 2.0030 -1.4925 15.2048 -1.4827 -2.4358 -4.2132 1.8941 -2.1432 21.9063 0.7780 -0.4347 7.4403 -0.0000 0.0000 0.0000 -84.5949 2.4037 21.8242 15.8297 -25.2891 -3.5729 -0.0000 -0.0000 7.5396 20.1605 -10.5142 -3.8329 -7.1250 0.0000 -0.0000 -4.8701 18.8186 3.0498 -0.0000 0.0000 0.0000 90.2706 -6.6144 8.2726 -21.3961 32.2878 -6.2602 0.0000 -0.0000 -2.5877 -13.0514 -52.0297 10.3563 7.1250 -0.0000 -0.0000 62.6312 -75.8172 -49.0194
0.00 0.00 0.00 177.9410 -0.3436 -160.0220 0.0000 0.0000 0.0000 -13.2926 -18.8994 -58.6108 20.5416 19.9930 91.5838 0.7009 1.3210 -16.3471 2.1801 -9.2315 -26.5221 0.0000 0.0000 0.0000 19.2895 13.9999 -23.9296 -0.4421 -4.2663 11.8272 -0.6409 -2.2594 -16.1073 -3.8078 11.9002 -35.3797 -4.2506 -2.0346 -20.6923 0.6079 -1.7246 2.7600 2.5487 -1.1909 15.0359 -1.4975 -2.6794 -3.6515 2.2511 -2.5025 21.7085 0.8750 -0.5644 7.2864 0.0000 -0.0000 0.0000 -85.5234 3.2550 20.4761 15.9170 -25.4080 -3.6103 -0.0000 -0.0000 6.0921 20.2756 -9.2814 -3.4098 -7.1250 0.0000 -0.0000 -4.7708 20.1138 2.8490 0.0000 -0.0000 0.0000 89.1364 -2.8438 10.2351 -22.7732 33.8399 -7.0116 0.0000 -0.0000 -2.7378 -12.8924 -51.8607 10.2054 7.1250 -0.0000 -0.0000 62.0846 -75.6946 -48.4028
0.00 0.00 0.00 177.4670 -0.0807 -152.9540 0.0000 0.0000 0.0000 -9.6923 -24.7141 -65.8580 9.6231 17.1924 58.2209 0.7466 -3.8982 -15.4722 2.3236 -9.5099 -27.4037 0.0000 0.0000 0.0000 18.2384 10.7783 -17.6782 -1.1380 -6.7748 19.0500 0.2003 -7.9437 -2.0970 -3.4775 11.4307 -33.7464 -9.5641 -0.0580 -21.2992 -3.0573 2.4714 1.2871 2.7372 0.4561 13.2495 -1.7156 -2.2726 -3.4197 6.4582 -5.5426 19.4480 1.9220 -2.8043 6.6953 0.0000 -0.0000 0.0000 -83.0363 2.6202 15.3393 15.5969 -24.9710 -3.4740 -0.0000 -0.0000 6.1303 21.0584 -9.8389 -3.7643 -7.1250 0.0000 -0.0000 -4.2201 19.4670 2.5794 0.0000 -0.0000 0.0000 88.6875 -1.6470 22.1439 -24.8740 36.0749 -8.2156 0.0000 -0.0000 -5.6727 -12.3772 -53.9195 10.0571 7.1250 -0.0000 -0.0000 70.2600 -76.1150 -56.3068
